# xmcd
#
# Track frame offsets:
#	150
#	16505
#	32280
#	49185
#	63557
#	78786
#	94464
#	107238
#	123202
#	139105
#	154908
#	169452
#	182102
#	195667
#	215806
#	234904
#	256882
#	280994
#	298215
#	308885
#	324297
#
# Disc length: 4711 seconds
#
# Revision: 1
# Processed by: cddbd v1.5.2PL0 Copyright (c) Steve Scherf et al.
# Submitted via: EZCDAudioConverter 8.3.2.1
#
DISCID=2c126515
DTITLE=Michel Sardou - Être Une Femme 2010
DYEAR=2010
DGENRE=Pop
TTITLE0=Michel Sardou - Et Puis Après
TTITLE1=Michel Sardou - Être Une Femme 2010
TTITLE2=Michel Sardou - Voler - En Duo Avec Céline Dion
TTITLE3=Michel Sardou - Chacun Sa Vérité
TTITLE4=Michel Sardou - Elle Vit Toute Seule
TTITLE5=Michel Sardou - Ca Viendra Forcément
TTITLE6=Michel Sardou - Rebelle
TTITLE7=Michel Sardou - Une Corde Pour Se Noyer
TTITLE8=Michel Sardou - Soleil Ou Pas
TTITLE9=Michel Sardou - L'humaine Différence
TTITLE10=Michel Sardou - Nuits Blanches À Rio
TTITLE11=Michel Sardou - Lequel Sommes Nous
TTITLE12=Michel Sardou - une Femme Extraodinnaire 
TTITLE13=Michel Sarcou - Voler 
TTITLE14=Michel Sardou - Mam'Selle Louisianne 
TTITLE15=Michel Sardou - Le Blues Black Brother 
TTITLE16=Michel Sardou - Au Nom du Pére
TTITLE17=Michel Sardou - Les Yeux de Mon Pére
TTITLE18=Michel Sardou - Dix Ans Plus Tôt 
TTITLE19=Michel Sardou - Rouge 
TTITLE20=Michel Sardou - La Dérnière Danse
EXTD=
EXTT0=
EXTT1=
EXTT2=
EXTT3=
EXTT4=
EXTT5=
EXTT6=
EXTT7=
EXTT8=
EXTT9=
EXTT10=
EXTT11=
EXTT12=
EXTT13=
EXTT14=
EXTT15=
EXTT16=
EXTT17=
EXTT18=
EXTT19=
EXTT20=
PLAYORDER=
